<svg xmlns="http://www.w3.org/2000/svg" width="1440" height="219.209" viewBox="0 0 1440 219.209"><path d="M1804,996H364V776.792c23.857,8.7,48.946,17.064,74.573,24.864,25.709,7.825,52.57,15.267,79.837,22.119,27.414,6.889,55.9,13.348,84.673,19.2,28.98,5.892,58.951,11.31,89.081,16.1,30.406,4.835,61.716,9.152,93.061,12.829,31.686,3.717,64.191,6.874,96.612,9.381,32.822,2.539,66.377,4.476,99.735,5.757,33.813,1.3,68.275,1.958,102.429,1.958s68.615-.659,102.429-1.958c33.358-1.282,66.913-3.219,99.734-5.757,32.42-2.508,64.925-5.664,96.612-9.381,31.345-3.677,62.655-7.994,93.061-12.829,30.129-4.791,60.1-10.209,89.081-16.1,28.766-5.849,57.254-12.308,84.673-19.2,27.268-6.852,54.129-14.294,79.837-22.119,25.616-7.8,50.706-16.162,74.573-24.864V996Z" transform="translate(-364 -776.792)" fill="#fff"/></svg>