<svg xmlns="http://www.w3.org/2000/svg" width="16.1" height="16" viewBox="0 0 16.1 16">
  <g id="instagram" transform="translate(0.05)">
    <rect id="Rectangle_4" data-name="Rectangle 4" width="16" height="16" fill="none"/>
    <g id="Group_1" data-name="Group 1" transform="translate(-1.05 -1)">
      <path id="Path_1" data-name="Path 1" d="M12.2,1H5.8A4.739,4.739,0,0,0,1,5.8v6.5A4.717,4.717,0,0,0,5.8,17h6.5a4.8,4.8,0,0,0,4.8-4.8V5.8A4.887,4.887,0,0,0,12.2,1Zm3.2,11.2a3.222,3.222,0,0,1-3.2,3.2H5.8a3.222,3.222,0,0,1-3.2-3.2V5.8A3.159,3.159,0,0,1,5.8,2.6h6.5a3.222,3.222,0,0,1,3.2,3.2l-.1,6.4Z" fill="#d2deed"/>
      <path id="Path_2" data-name="Path 2" d="M9,4.9A4.055,4.055,0,0,0,4.9,9,4.118,4.118,0,0,0,9,13.1,4.185,4.185,0,0,0,13.1,9,4.118,4.118,0,0,0,9,4.9Zm0,6.6A2.5,2.5,0,1,1,11.5,9,2.476,2.476,0,0,1,9,11.5Z" fill="#d2deed"/>
      <circle id="Ellipse_1" data-name="Ellipse 1" cx="1" cy="1" r="1" transform="translate(12.1 3.9)" fill="#d2deed"/>
    </g>
  </g>
</svg>
