<svg xmlns="http://www.w3.org/2000/svg" width="14.493" height="13.85" viewBox="0 0 14.493 13.85"><g transform="translate(-27.068 -23.969)"><path d="M41.561,32.459v5.359H38.454v-5c0-1.255-.449-2.113-1.574-2.113a1.7,1.7,0,0,0-1.594,1.136,2.127,2.127,0,0,0-.1.757v5.219H32.077s.042-8.468,0-9.345h3.107V29.8c-.006.01-.015.021-.021.031h.021V29.8a3.085,3.085,0,0,1,2.8-1.544c2.044,0,3.577,1.336,3.577,4.205Zm-12.735-8.49a1.619,1.619,0,1,0-.041,3.229h.02a1.62,1.62,0,1,0,.021-3.229ZM27.253,37.818h3.106V28.473H27.253Z" transform="translate(0 0)" fill="#d2deed"/></g></svg>